<mxfile host="app.diagrams.net" modified="2022-01-21T14:53:56.914Z" agent="5.0 (Windows)" etag="2KZ4txHkMrhsUZMxvB32" version="16.2.7" type="github">
  <diagram id="QBchSwfQgvvRqoAkoElo" name="Page-1">
    <mxGraphModel dx="526" dy="250" grid="1" gridSize="10" guides="1" tooltips="1" connect="1" arrows="1" fold="1" page="1" pageScale="1" pageWidth="850" pageHeight="1100" math="0" shadow="0">
      <root>
        <mxCell id="0" />
        <mxCell id="1" parent="0" />
        <mxCell id="_aDls08xKMx5EJanJG5F-29" value="&lt;h1&gt;Auto Invoice-&amp;nbsp; Flow &lt;br&gt;&lt;/h1&gt;&amp;nbsp;" style="text;html=1;strokeColor=none;fillColor=none;spacing=5;spacingTop=-20;whiteSpace=wrap;overflow=hidden;rounded=0;fontSize=9;" parent="1" vertex="1">
          <mxGeometry x="55" y="500" width="245" height="40" as="geometry" />
        </mxCell>
        <mxCell id="_aDls08xKMx5EJanJG5F-25" value="URA API" style="swimlane;startSize=20;horizontal=0;fontStyle=1" parent="1" vertex="1">
          <mxGeometry x="180" y="1169" width="650" height="120" as="geometry" />
        </mxCell>
        <mxCell id="_aDls08xKMx5EJanJG5F-26" value="&lt;div&gt;T110 &lt;br&gt;&lt;/div&gt;&lt;div&gt;API &lt;/div&gt;" style="rounded=1;whiteSpace=wrap;html=1;fontSize=11;fillColor=#e3c800;fontColor=#000000;strokeColor=#B09500;" parent="_aDls08xKMx5EJanJG5F-25" vertex="1">
          <mxGeometry x="316" y="13" width="105" height="47" as="geometry" />
        </mxCell>
        <mxCell id="_aDls08xKMx5EJanJG5F-55" value="&lt;div&gt;3&lt;br&gt;&lt;/div&gt;&lt;div&gt;Invoke- &lt;br&gt;&lt;/div&gt;&lt;div&gt;Select from DB&lt;br&gt;&lt;/div&gt;" style="text;html=1;strokeColor=none;fillColor=none;align=center;verticalAlign=middle;whiteSpace=wrap;rounded=0;fontSize=11;" parent="_aDls08xKMx5EJanJG5F-25" vertex="1">
          <mxGeometry x="44" y="70" width="86" height="40" as="geometry" />
        </mxCell>
        <mxCell id="B8IcdggADXOZ8Fm9hswP-16" value="&lt;div&gt;T111&lt;/div&gt;&lt;div&gt;API &lt;/div&gt;" style="rounded=1;whiteSpace=wrap;html=1;fontSize=11;fillColor=#e3c800;fontColor=#000000;strokeColor=#B09500;" parent="_aDls08xKMx5EJanJG5F-25" vertex="1">
          <mxGeometry x="423" y="13" width="93" height="47" as="geometry" />
        </mxCell>
        <mxCell id="B8IcdggADXOZ8Fm9hswP-20" value="&lt;div&gt;T108&lt;/div&gt;&lt;div&gt;API &lt;/div&gt;" style="rounded=1;whiteSpace=wrap;html=1;fontSize=11;fillColor=#e3c800;fontColor=#000000;strokeColor=#B09500;" parent="_aDls08xKMx5EJanJG5F-25" vertex="1">
          <mxGeometry x="522" y="13" width="90" height="47" as="geometry" />
        </mxCell>
        <mxCell id="B8IcdggADXOZ8Fm9hswP-19" value="" style="edgeStyle=orthogonalEdgeStyle;rounded=0;orthogonalLoop=1;jettySize=auto;html=1;" parent="1" source="_aDls08xKMx5EJanJG5F-21" target="B8IcdggADXOZ8Fm9hswP-16" edge="1">
          <mxGeometry relative="1" as="geometry" />
        </mxCell>
        <mxCell id="B8IcdggADXOZ8Fm9hswP-21" style="edgeStyle=orthogonalEdgeStyle;rounded=0;orthogonalLoop=1;jettySize=auto;html=1;entryX=0.667;entryY=-0.033;entryDx=0;entryDy=0;entryPerimeter=0;" parent="1" source="_aDls08xKMx5EJanJG5F-21" target="B8IcdggADXOZ8Fm9hswP-20" edge="1">
          <mxGeometry relative="1" as="geometry" />
        </mxCell>
        <mxCell id="lgGBbf29C0v0kF9u0JD7-4" value="Integration " style="swimlane;childLayout=stackLayout;resizeParent=1;resizeParentMax=0;horizontal=1;startSize=20;horizontalStack=0;" vertex="1" parent="1">
          <mxGeometry x="179" y="560" width="651" height="140" as="geometry" />
        </mxCell>
        <mxCell id="lgGBbf29C0v0kF9u0JD7-5" value="Fusion UCM" style="swimlane;startSize=20;horizontal=0;" vertex="1" parent="lgGBbf29C0v0kF9u0JD7-4">
          <mxGeometry y="20" width="651" height="120" as="geometry" />
        </mxCell>
        <mxCell id="lgGBbf29C0v0kF9u0JD7-14" value="" style="sketch=0;outlineConnect=0;fontColor=#232F3E;gradientColor=none;fillColor=#3F8624;strokeColor=none;dashed=0;verticalLabelPosition=bottom;verticalAlign=top;align=center;html=1;fontSize=12;fontStyle=0;aspect=fixed;pointerEvents=1;shape=mxgraph.aws4.file_system;" vertex="1" parent="lgGBbf29C0v0kF9u0JD7-5">
          <mxGeometry x="61" y="10" width="42.74" height="40" as="geometry" />
        </mxCell>
        <mxCell id="_aDls08xKMx5EJanJG5F-8" value="" style="swimlane;childLayout=stackLayout;resizeParent=1;resizeParentMax=0;horizontal=1;startSize=20;horizontalStack=0;" parent="1" vertex="1">
          <mxGeometry x="179" y="690" width="651" height="920" as="geometry" />
        </mxCell>
        <mxCell id="_aDls08xKMx5EJanJG5F-9" value="" style="swimlane;startSize=20;horizontal=0;" parent="_aDls08xKMx5EJanJG5F-8" vertex="1">
          <mxGeometry y="20" width="651" height="225" as="geometry">
            <mxRectangle y="20" width="650" height="40" as="alternateBounds" />
          </mxGeometry>
        </mxCell>
        <mxCell id="_aDls08xKMx5EJanJG5F-10" value="&lt;font style=&quot;font-size: 11px&quot;&gt;Fusion Cloud&lt;/font&gt;" style="text;html=1;strokeColor=none;fillColor=none;align=center;verticalAlign=middle;whiteSpace=wrap;rounded=0;rotation=-90;fontStyle=1" parent="_aDls08xKMx5EJanJG5F-9" vertex="1">
          <mxGeometry x="-35" y="45" width="90" height="30" as="geometry" />
        </mxCell>
        <mxCell id="_aDls08xKMx5EJanJG5F-11" value="" style="sketch=0;outlineConnect=0;fontColor=#232F3E;gradientColor=none;fillColor=#B0084D;strokeColor=none;dashed=0;verticalLabelPosition=bottom;verticalAlign=top;align=center;html=1;fontSize=12;fontStyle=0;aspect=fixed;pointerEvents=1;shape=mxgraph.aws4.eventbridge_default_event_bus_resource;" parent="_aDls08xKMx5EJanJG5F-9" vertex="1">
          <mxGeometry x="288.91999999999996" y="30" width="22.08" height="15" as="geometry" />
        </mxCell>
        <mxCell id="_aDls08xKMx5EJanJG5F-13" value="ERP SAAS" style="rounded=1;whiteSpace=wrap;html=1;fontSize=9;fillColor=#ffe6cc;strokeColor=#d79b00;" parent="_aDls08xKMx5EJanJG5F-9" vertex="1">
          <mxGeometry x="198.92" y="10" width="90" height="40" as="geometry" />
        </mxCell>
        <mxCell id="_aDls08xKMx5EJanJG5F-41" value="&lt;div style=&quot;font-size: 11px&quot;&gt;&lt;span&gt;&lt;font style=&quot;font-size: 11px&quot;&gt;&lt;span&gt;	&lt;/span&gt;&lt;span&gt;	&lt;/span&gt;&lt;span&gt;	&lt;/span&gt;1&lt;/font&gt;&lt;/span&gt;&lt;/div&gt;&lt;div style=&quot;font-size: 11px&quot;&gt;&lt;span&gt;&lt;font style=&quot;font-size: 11px&quot;&gt;&lt;span lang=&quot;EN-GB&quot;&gt;&lt;span&gt;	&lt;/span&gt;&lt;span&gt;	&lt;/span&gt;&lt;span&gt;	&lt;/span&gt;&lt;span&gt;	&lt;/span&gt;&lt;span&gt;	&lt;/span&gt;Receivables&lt;/span&gt;&lt;/font&gt;&lt;/span&gt;&lt;/div&gt;&lt;div style=&quot;font-size: 11px&quot;&gt;&lt;span&gt;&lt;font style=&quot;font-size: 11px&quot;&gt;&lt;span lang=&quot;EN-GB&quot;&gt;AutoInvoice&lt;br&gt;&lt;/span&gt;&lt;/font&gt;&lt;/span&gt;&lt;/div&gt;&lt;div style=&quot;font-size: 11px&quot;&gt;&lt;span&gt;&lt;font style=&quot;font-size: 11px&quot;&gt;&lt;span lang=&quot;EN-GB&quot;&gt;&lt;span&gt;	&lt;/span&gt;&lt;span&gt;	&lt;/span&gt;Completed&lt;/span&gt;&lt;/font&gt;&lt;/span&gt;&lt;/div&gt;&lt;div style=&quot;font-size: 11px&quot;&gt;&lt;span&gt;&lt;font style=&quot;font-size: 11px&quot;&gt;&lt;br&gt;&lt;/font&gt;&lt;/span&gt;&lt;/div&gt;&lt;div style=&quot;font-size: 11px&quot;&gt;&lt;span&gt;&lt;font style=&quot;font-size: 11px&quot;&gt;&lt;br&gt;&lt;br&gt;&lt;/font&gt;&lt;/span&gt;&lt;/div&gt;" style="text;html=1;strokeColor=none;fillColor=none;align=center;verticalAlign=middle;whiteSpace=wrap;rounded=0;fontSize=9;fontStyle=0" parent="_aDls08xKMx5EJanJG5F-9" vertex="1">
          <mxGeometry x="261" y="15.5" width="152" height="44" as="geometry" />
        </mxCell>
        <mxCell id="_aDls08xKMx5EJanJG5F-30" value="2 .Invoke" style="text;html=1;strokeColor=none;fillColor=none;align=center;verticalAlign=middle;whiteSpace=wrap;rounded=0;fontSize=11;" parent="_aDls08xKMx5EJanJG5F-9" vertex="1">
          <mxGeometry x="81" y="110" width="60" height="20" as="geometry" />
        </mxCell>
        <mxCell id="_aDls08xKMx5EJanJG5F-28" style="edgeStyle=orthogonalEdgeStyle;rounded=0;orthogonalLoop=1;jettySize=auto;html=1;fontSize=11;" parent="_aDls08xKMx5EJanJG5F-8" source="_aDls08xKMx5EJanJG5F-11" target="_aDls08xKMx5EJanJG5F-20" edge="1">
          <mxGeometry relative="1" as="geometry">
            <Array as="points">
              <mxPoint x="300" y="160" />
              <mxPoint x="141" y="160" />
            </Array>
          </mxGeometry>
        </mxCell>
        <mxCell id="_aDls08xKMx5EJanJG5F-16" value="" style="swimlane;startSize=20;horizontal=0;" parent="_aDls08xKMx5EJanJG5F-8" vertex="1">
          <mxGeometry y="245" width="651" height="675" as="geometry" />
        </mxCell>
        <mxCell id="lgGBbf29C0v0kF9u0JD7-10" style="edgeStyle=orthogonalEdgeStyle;rounded=0;orthogonalLoop=1;jettySize=auto;html=1;exitX=1;exitY=0;exitDx=0;exitDy=0;entryX=0.008;entryY=0.027;entryDx=0;entryDy=0;entryPerimeter=0;" edge="1" parent="_aDls08xKMx5EJanJG5F-16" source="_aDls08xKMx5EJanJG5F-17" target="_aDls08xKMx5EJanJG5F-16">
          <mxGeometry relative="1" as="geometry" />
        </mxCell>
        <mxCell id="_aDls08xKMx5EJanJG5F-17" value="&lt;b&gt;OIC&lt;/b&gt;" style="text;html=1;strokeColor=none;fillColor=none;align=center;verticalAlign=middle;whiteSpace=wrap;rounded=0;rotation=-90;" parent="_aDls08xKMx5EJanJG5F-16" vertex="1">
          <mxGeometry x="-20" y="50" width="60" height="10" as="geometry" />
        </mxCell>
        <mxCell id="_aDls08xKMx5EJanJG5F-20" value="&lt;div style=&quot;font-size: 9px&quot;&gt;&lt;font style=&quot;font-size: 9px&quot;&gt;&lt;br&gt;&lt;/font&gt;&lt;/div&gt;&lt;div style=&quot;font-size: 9px&quot;&gt;&lt;font style=&quot;font-size: 9px&quot;&gt;INT101_BE_AUTO&lt;/font&gt;&lt;/div&gt;&lt;div style=&quot;font-size: 9px&quot;&gt;&lt;font style=&quot;font-size: 9px&quot;&gt;_InvoiceComplete &lt;br&gt;&lt;/font&gt;&lt;/div&gt;" style="rounded=1;whiteSpace=wrap;html=1;fillColor=#f8cecc;strokeColor=#b85450;fontStyle=0" parent="_aDls08xKMx5EJanJG5F-16" vertex="1">
          <mxGeometry x="121" y="15" width="100" height="40" as="geometry" />
        </mxCell>
        <mxCell id="B8IcdggADXOZ8Fm9hswP-22" style="edgeStyle=orthogonalEdgeStyle;rounded=0;orthogonalLoop=1;jettySize=auto;html=1;entryX=0.75;entryY=1;entryDx=0;entryDy=0;" parent="_aDls08xKMx5EJanJG5F-16" source="_aDls08xKMx5EJanJG5F-21" target="_aDls08xKMx5EJanJG5F-22" edge="1">
          <mxGeometry relative="1" as="geometry" />
        </mxCell>
        <mxCell id="_aDls08xKMx5EJanJG5F-21" value="&lt;div&gt;&amp;nbsp;INT101_Schedular_&lt;/div&gt;&lt;div&gt;CreditMemo&lt;/div&gt;" style="rounded=1;whiteSpace=wrap;html=1;fillColor=#d5e8d4;strokeColor=#82b366;fontStyle=0" parent="_aDls08xKMx5EJanJG5F-16" vertex="1">
          <mxGeometry x="360" y="120" width="100" height="60" as="geometry" />
        </mxCell>
        <mxCell id="_aDls08xKMx5EJanJG5F-22" value="&lt;div style=&quot;font-size: 11px&quot;&gt;&amp;nbsp;&lt;font style=&quot;font-size: 11px&quot;&gt;INT101_Fusion_&lt;/font&gt;&lt;/div&gt;&lt;div style=&quot;font-size: 11px&quot;&gt;&lt;font style=&quot;font-size: 11px&quot;&gt;Processing_URA_ERP&lt;/font&gt;&lt;/div&gt;" style="rounded=1;whiteSpace=wrap;html=1;fillColor=#d5e8d4;strokeColor=#82b366;" parent="_aDls08xKMx5EJanJG5F-16" vertex="1">
          <mxGeometry x="390" y="15" width="120" height="55" as="geometry" />
        </mxCell>
        <mxCell id="_aDls08xKMx5EJanJG5F-44" value="INT101_BE_Debit _Credit_ERP_URA" style="rounded=1;whiteSpace=wrap;html=1;fillColor=#d5e8d4;strokeColor=#82b366;" parent="_aDls08xKMx5EJanJG5F-16" vertex="1">
          <mxGeometry x="30" y="131" width="110" height="39" as="geometry" />
        </mxCell>
        <mxCell id="_aDls08xKMx5EJanJG5F-49" value="Invoke-Credit " style="text;html=1;strokeColor=none;fillColor=none;align=center;verticalAlign=middle;whiteSpace=wrap;rounded=0;fontSize=11;" parent="_aDls08xKMx5EJanJG5F-16" vertex="1">
          <mxGeometry x="100" y="97" width="60" height="30" as="geometry" />
        </mxCell>
        <mxCell id="B8IcdggADXOZ8Fm9hswP-12" value="" style="endArrow=classic;html=1;rounded=0;exitX=1;exitY=0.25;exitDx=0;exitDy=0;" parent="_aDls08xKMx5EJanJG5F-16" source="_aDls08xKMx5EJanJG5F-44" target="_aDls08xKMx5EJanJG5F-22" edge="1">
          <mxGeometry width="50" height="50" relative="1" as="geometry">
            <mxPoint x="150" y="160" as="sourcePoint" />
            <mxPoint x="200" y="110" as="targetPoint" />
            <Array as="points">
              <mxPoint x="260" y="141" />
              <mxPoint x="331" y="75" />
            </Array>
          </mxGeometry>
        </mxCell>
        <mxCell id="B8IcdggADXOZ8Fm9hswP-13" value="" style="html=1;verticalLabelPosition=bottom;align=center;labelBackgroundColor=#ffffff;verticalAlign=top;strokeWidth=2;strokeColor=#0080F0;shadow=0;dashed=0;shape=mxgraph.ios7.icons.clock;" parent="_aDls08xKMx5EJanJG5F-16" vertex="1">
          <mxGeometry x="360" y="101" width="30" height="30" as="geometry" />
        </mxCell>
        <mxCell id="B8IcdggADXOZ8Fm9hswP-23" value="&lt;div&gt;5.1&lt;/div&gt;&lt;div&gt;Invoke- Polll Credit submitted records&lt;br&gt;&lt;/div&gt;" style="text;html=1;strokeColor=none;fillColor=none;align=center;verticalAlign=middle;whiteSpace=wrap;rounded=0;fontSize=11;" parent="_aDls08xKMx5EJanJG5F-16" vertex="1">
          <mxGeometry x="260" y="170" width="95" height="45" as="geometry" />
        </mxCell>
        <mxCell id="B8IcdggADXOZ8Fm9hswP-24" value="&lt;div&gt;5.2&lt;/div&gt;&lt;div&gt;Invoke- Check Status for Credit Submitted Records&lt;br&gt;&lt;/div&gt;" style="text;html=1;strokeColor=none;fillColor=none;align=center;verticalAlign=middle;whiteSpace=wrap;rounded=0;fontSize=11;" parent="_aDls08xKMx5EJanJG5F-16" vertex="1">
          <mxGeometry x="402.5" y="190" width="95" height="45" as="geometry" />
        </mxCell>
        <mxCell id="B8IcdggADXOZ8Fm9hswP-25" value="&lt;div&gt;5.3&lt;/div&gt;&lt;div&gt;Invoke- Get All Details for Approved credit &lt;br&gt;&lt;/div&gt;" style="text;html=1;strokeColor=none;fillColor=none;align=center;verticalAlign=middle;whiteSpace=wrap;rounded=0;fontSize=11;" parent="_aDls08xKMx5EJanJG5F-16" vertex="1">
          <mxGeometry x="510" y="128" width="95" height="45" as="geometry" />
        </mxCell>
        <mxCell id="_aDls08xKMx5EJanJG5F-15" value="Update Fusion custom object" style="text;html=1;strokeColor=none;fillColor=none;align=center;verticalAlign=middle;whiteSpace=wrap;rounded=0;fontSize=11;" parent="_aDls08xKMx5EJanJG5F-16" vertex="1">
          <mxGeometry x="531" y="20" width="90" height="40" as="geometry" />
        </mxCell>
        <mxCell id="lgGBbf29C0v0kF9u0JD7-11" value="" style="edgeStyle=orthogonalEdgeStyle;rounded=0;orthogonalLoop=1;jettySize=auto;html=1;fontSize=11;" edge="1" parent="_aDls08xKMx5EJanJG5F-16" source="lgGBbf29C0v0kF9u0JD7-8" target="_aDls08xKMx5EJanJG5F-22">
          <mxGeometry relative="1" as="geometry" />
        </mxCell>
        <mxCell id="lgGBbf29C0v0kF9u0JD7-35" style="edgeStyle=orthogonalEdgeStyle;rounded=0;orthogonalLoop=1;jettySize=auto;html=1;entryX=0.5;entryY=0;entryDx=0;entryDy=0;fontSize=9;" edge="1" parent="_aDls08xKMx5EJanJG5F-16" source="lgGBbf29C0v0kF9u0JD7-8" target="lgGBbf29C0v0kF9u0JD7-34">
          <mxGeometry relative="1" as="geometry">
            <Array as="points">
              <mxPoint x="251" y="158" />
              <mxPoint x="197" y="158" />
              <mxPoint x="197" y="245" />
              <mxPoint x="200" y="245" />
            </Array>
          </mxGeometry>
        </mxCell>
        <mxCell id="lgGBbf29C0v0kF9u0JD7-36" style="edgeStyle=orthogonalEdgeStyle;rounded=0;orthogonalLoop=1;jettySize=auto;html=1;entryX=0.5;entryY=0;entryDx=0;entryDy=0;fontSize=9;" edge="1" parent="_aDls08xKMx5EJanJG5F-16" source="lgGBbf29C0v0kF9u0JD7-8" target="_aDls08xKMx5EJanJG5F-36">
          <mxGeometry relative="1" as="geometry">
            <Array as="points">
              <mxPoint x="271" y="223" />
              <mxPoint x="262" y="223" />
            </Array>
          </mxGeometry>
        </mxCell>
        <mxCell id="lgGBbf29C0v0kF9u0JD7-8" value="&lt;div style=&quot;font-size: 8px&quot;&gt;&lt;b&gt;&lt;font style=&quot;font-size: 8px&quot;&gt;INT101_Process_Invoice&lt;/font&gt;&lt;/b&gt;&lt;/div&gt;&lt;div style=&quot;font-size: 8px&quot;&gt;&lt;b&gt;&lt;font style=&quot;font-size: 8px&quot;&gt;_Debit_ERP_URA &lt;/font&gt;&lt;/b&gt;&lt;/div&gt;" style="rounded=1;whiteSpace=wrap;html=1;fillColor=#d5e8d4;strokeColor=#82b366;" vertex="1" parent="_aDls08xKMx5EJanJG5F-16">
          <mxGeometry x="240" y="10" width="100" height="50" as="geometry" />
        </mxCell>
        <mxCell id="_aDls08xKMx5EJanJG5F-31" value="Fusion Custom Object" style="swimlane;startSize=20;horizontal=0;fontSize=12;fontStyle=1" parent="_aDls08xKMx5EJanJG5F-16" vertex="1">
          <mxGeometry y="495" width="650" height="190" as="geometry" />
        </mxCell>
        <mxCell id="_aDls08xKMx5EJanJG5F-32" value="ERP SAAS" style="rounded=1;whiteSpace=wrap;html=1;fontSize=9;fillColor=#ffe6cc;strokeColor=#d79b00;" parent="_aDls08xKMx5EJanJG5F-31" vertex="1">
          <mxGeometry x="210" y="40" width="112.08" height="90" as="geometry" />
        </mxCell>
        <mxCell id="_aDls08xKMx5EJanJG5F-33" value="Custom Object" style="rounded=1;whiteSpace=wrap;html=1;fontSize=11;fillColor=#fad9d5;strokeColor=#ae4132;" parent="_aDls08xKMx5EJanJG5F-31" vertex="1">
          <mxGeometry x="306" y="70" width="110" height="40" as="geometry" />
        </mxCell>
        <mxCell id="_aDls08xKMx5EJanJG5F-38" value="4, 5.6&lt;br&gt;&lt;div&gt;Invoke- Fusion Object update&lt;br&gt;&lt;/div&gt;" style="text;html=1;strokeColor=none;fillColor=none;align=center;verticalAlign=middle;whiteSpace=wrap;rounded=0;fontSize=11;" parent="_aDls08xKMx5EJanJG5F-31" vertex="1">
          <mxGeometry x="430" y="40" width="95" height="40" as="geometry" />
        </mxCell>
        <mxCell id="lgGBbf29C0v0kF9u0JD7-15" value="Fusion UCM" style="swimlane;startSize=20;horizontal=0;" vertex="1" parent="_aDls08xKMx5EJanJG5F-16">
          <mxGeometry y="-365" width="651" height="120" as="geometry" />
        </mxCell>
        <mxCell id="lgGBbf29C0v0kF9u0JD7-27" value="ERP Extract JOB Call Back" style="text;html=1;strokeColor=none;fillColor=none;align=center;verticalAlign=middle;whiteSpace=wrap;rounded=0;fontSize=9;" vertex="1" parent="lgGBbf29C0v0kF9u0JD7-15">
          <mxGeometry x="70" y="80" width="90" height="20" as="geometry" />
        </mxCell>
        <mxCell id="lgGBbf29C0v0kF9u0JD7-17" value="" style="swimlane;startSize=20;horizontal=0;" vertex="1" parent="_aDls08xKMx5EJanJG5F-16">
          <mxGeometry y="-225" width="650" height="225" as="geometry">
            <mxRectangle y="20" width="650" height="40" as="alternateBounds" />
          </mxGeometry>
        </mxCell>
        <mxCell id="lgGBbf29C0v0kF9u0JD7-18" value="&lt;font style=&quot;font-size: 11px&quot;&gt;Fusion Cloud&lt;/font&gt;" style="text;html=1;strokeColor=none;fillColor=none;align=center;verticalAlign=middle;whiteSpace=wrap;rounded=0;rotation=-90;fontStyle=1" vertex="1" parent="lgGBbf29C0v0kF9u0JD7-17">
          <mxGeometry x="-35" y="45" width="90" height="30" as="geometry" />
        </mxCell>
        <mxCell id="lgGBbf29C0v0kF9u0JD7-19" value="" style="sketch=0;outlineConnect=0;fontColor=#232F3E;gradientColor=none;fillColor=#B0084D;strokeColor=none;dashed=0;verticalLabelPosition=bottom;verticalAlign=top;align=center;html=1;fontSize=12;fontStyle=0;aspect=fixed;pointerEvents=1;shape=mxgraph.aws4.eventbridge_default_event_bus_resource;" vertex="1" parent="lgGBbf29C0v0kF9u0JD7-17">
          <mxGeometry x="288.91999999999996" y="30" width="22.08" height="15" as="geometry" />
        </mxCell>
        <mxCell id="lgGBbf29C0v0kF9u0JD7-20" value="ERP SAAS" style="rounded=1;whiteSpace=wrap;html=1;fontSize=9;fillColor=#ffe6cc;strokeColor=#d79b00;" vertex="1" parent="lgGBbf29C0v0kF9u0JD7-17">
          <mxGeometry x="198.92" y="10" width="90" height="40" as="geometry" />
        </mxCell>
        <mxCell id="lgGBbf29C0v0kF9u0JD7-21" value="&lt;div style=&quot;font-size: 11px&quot;&gt;&lt;span&gt;&lt;font style=&quot;font-size: 11px&quot;&gt;&lt;span&gt;	&lt;/span&gt;&lt;span&gt;	&lt;/span&gt;&lt;span&gt;	&lt;/span&gt;1&lt;/font&gt;&lt;/span&gt;&lt;/div&gt;&lt;div style=&quot;font-size: 11px&quot;&gt;&lt;span&gt;&lt;font style=&quot;font-size: 11px&quot;&gt;&lt;span lang=&quot;EN-GB&quot;&gt;&lt;span&gt;	&lt;/span&gt;&lt;span&gt;	&lt;/span&gt;&lt;span&gt;	&lt;/span&gt;&lt;span&gt;	&lt;/span&gt;&lt;span&gt;	&lt;/span&gt;Receivables&lt;/span&gt;&lt;/font&gt;&lt;/span&gt;&lt;/div&gt;&lt;div style=&quot;font-size: 11px&quot;&gt;&lt;span&gt;&lt;font style=&quot;font-size: 11px&quot;&gt;&lt;span lang=&quot;EN-GB&quot;&gt;AutoInvoice&lt;br&gt;&lt;/span&gt;&lt;/font&gt;&lt;/span&gt;&lt;/div&gt;&lt;div style=&quot;font-size: 11px&quot;&gt;&lt;span&gt;&lt;font style=&quot;font-size: 11px&quot;&gt;&lt;span lang=&quot;EN-GB&quot;&gt;&lt;span&gt;	&lt;/span&gt;&lt;span&gt;	&lt;/span&gt;Completed&lt;/span&gt;&lt;/font&gt;&lt;/span&gt;&lt;/div&gt;&lt;div style=&quot;font-size: 11px&quot;&gt;&lt;span&gt;&lt;font style=&quot;font-size: 11px&quot;&gt;&lt;br&gt;&lt;/font&gt;&lt;/span&gt;&lt;/div&gt;&lt;div style=&quot;font-size: 11px&quot;&gt;&lt;span&gt;&lt;font style=&quot;font-size: 11px&quot;&gt;&lt;br&gt;&lt;br&gt;&lt;/font&gt;&lt;/span&gt;&lt;/div&gt;" style="text;html=1;strokeColor=none;fillColor=none;align=center;verticalAlign=middle;whiteSpace=wrap;rounded=0;fontSize=9;fontStyle=0" vertex="1" parent="lgGBbf29C0v0kF9u0JD7-17">
          <mxGeometry x="261" y="15.5" width="152" height="44" as="geometry" />
        </mxCell>
        <mxCell id="lgGBbf29C0v0kF9u0JD7-22" value="2 .Invoke" style="text;html=1;strokeColor=none;fillColor=none;align=center;verticalAlign=middle;whiteSpace=wrap;rounded=0;fontSize=11;" vertex="1" parent="lgGBbf29C0v0kF9u0JD7-17">
          <mxGeometry x="81" y="110" width="60" height="20" as="geometry" />
        </mxCell>
        <mxCell id="lgGBbf29C0v0kF9u0JD7-23" value="&lt;b&gt;OIC&lt;/b&gt;" style="text;html=1;strokeColor=none;fillColor=none;align=center;verticalAlign=middle;whiteSpace=wrap;rounded=0;rotation=-90;" vertex="1" parent="_aDls08xKMx5EJanJG5F-16">
          <mxGeometry x="-20" y="50" width="60" height="10" as="geometry" />
        </mxCell>
        <mxCell id="lgGBbf29C0v0kF9u0JD7-28" style="edgeStyle=orthogonalEdgeStyle;rounded=0;orthogonalLoop=1;jettySize=auto;html=1;entryX=0.25;entryY=1;entryDx=0;entryDy=0;fontSize=9;" edge="1" parent="_aDls08xKMx5EJanJG5F-16" source="lgGBbf29C0v0kF9u0JD7-24" target="lgGBbf29C0v0kF9u0JD7-8">
          <mxGeometry relative="1" as="geometry">
            <Array as="points">
              <mxPoint x="61" y="80" />
              <mxPoint x="265" y="80" />
            </Array>
          </mxGeometry>
        </mxCell>
        <mxCell id="lgGBbf29C0v0kF9u0JD7-29" style="edgeStyle=orthogonalEdgeStyle;rounded=0;orthogonalLoop=1;jettySize=auto;html=1;entryX=0.329;entryY=0.022;entryDx=0;entryDy=0;entryPerimeter=0;fontSize=9;" edge="1" parent="_aDls08xKMx5EJanJG5F-16" source="lgGBbf29C0v0kF9u0JD7-24" target="_aDls08xKMx5EJanJG5F-44">
          <mxGeometry relative="1" as="geometry" />
        </mxCell>
        <mxCell id="lgGBbf29C0v0kF9u0JD7-24" value="&lt;div style=&quot;font-size: 9px&quot;&gt;&lt;font style=&quot;font-size: 9px&quot;&gt;&lt;br&gt;&lt;/font&gt;&lt;/div&gt;&lt;div style=&quot;font-size: 9px&quot;&gt;&lt;font style=&quot;font-size: 9px&quot;&gt;INT101_ERP&lt;/font&gt;&lt;/div&gt;&lt;div style=&quot;font-size: 9px&quot;&gt;&lt;font style=&quot;font-size: 9px&quot;&gt;_CallBack&lt;br&gt;&lt;/font&gt;&lt;/div&gt;" style="rounded=1;whiteSpace=wrap;html=1;fillColor=#f8cecc;strokeColor=#b85450;fontStyle=0" vertex="1" parent="_aDls08xKMx5EJanJG5F-16">
          <mxGeometry x="21" y="10" width="79" height="50" as="geometry" />
        </mxCell>
        <mxCell id="_aDls08xKMx5EJanJG5F-23" value="BIP Job Call" style="text;html=1;strokeColor=none;fillColor=none;align=center;verticalAlign=middle;whiteSpace=wrap;rounded=0;fontSize=9;" parent="_aDls08xKMx5EJanJG5F-16" vertex="1">
          <mxGeometry x="116" y="-10" width="130" height="30" as="geometry" />
        </mxCell>
        <mxCell id="_aDls08xKMx5EJanJG5F-35" value="DBASS" style="swimlane;startSize=20;horizontal=0;fontSize=11;" parent="_aDls08xKMx5EJanJG5F-16" vertex="1">
          <mxGeometry x="0.5" y="355" width="650" height="140" as="geometry" />
        </mxCell>
        <mxCell id="_aDls08xKMx5EJanJG5F-36" value="Oracle DBAAS" style="rounded=1;whiteSpace=wrap;html=1;fontSize=9;fillColor=#ffe6cc;strokeColor=#d79b00;" parent="_aDls08xKMx5EJanJG5F-35" vertex="1">
          <mxGeometry x="205" y="30" width="112.08" height="70" as="geometry" />
        </mxCell>
        <mxCell id="_aDls08xKMx5EJanJG5F-53" value="&lt;div style=&quot;font-size: 10px;&quot;&gt;Retrieve Customer TransactionID&lt;br style=&quot;font-size: 10px;&quot;&gt;&lt;/div&gt;" style="text;html=1;strokeColor=none;fillColor=none;align=center;verticalAlign=middle;whiteSpace=wrap;rounded=0;fontSize=10;" parent="_aDls08xKMx5EJanJG5F-35" vertex="1">
          <mxGeometry x="60" y="20" width="90" height="30" as="geometry" />
        </mxCell>
        <mxCell id="_aDls08xKMx5EJanJG5F-34" style="edgeStyle=orthogonalEdgeStyle;rounded=0;orthogonalLoop=1;jettySize=auto;html=1;entryX=1;entryY=0;entryDx=0;entryDy=0;fontSize=11;exitX=1;exitY=0.5;exitDx=0;exitDy=0;" parent="_aDls08xKMx5EJanJG5F-35" source="_aDls08xKMx5EJanJG5F-22" edge="1">
          <mxGeometry relative="1" as="geometry">
            <Array as="points">
              <mxPoint x="630" y="-337" />
              <mxPoint x="630" y="40" />
              <mxPoint x="610" y="40" />
              <mxPoint x="610" y="224" />
            </Array>
            <mxPoint x="477.037037037037" y="-300" as="sourcePoint" />
            <mxPoint x="417.00000000000006" y="224" as="targetPoint" />
          </mxGeometry>
        </mxCell>
        <mxCell id="B8IcdggADXOZ8Fm9hswP-6" value="&lt;div&gt;4.2&lt;br&gt;&lt;/div&gt;&lt;div&gt;Invoke- &lt;br&gt;&lt;/div&gt;&lt;div&gt;Update Credit Staus to DB&lt;br&gt;&lt;/div&gt;" style="text;html=1;strokeColor=none;fillColor=none;align=center;verticalAlign=middle;whiteSpace=wrap;rounded=0;fontSize=11;" parent="_aDls08xKMx5EJanJG5F-35" vertex="1">
          <mxGeometry x="159" y="-30" width="86" height="58" as="geometry" />
        </mxCell>
        <mxCell id="_aDls08xKMx5EJanJG5F-48" style="edgeStyle=orthogonalEdgeStyle;rounded=0;orthogonalLoop=1;jettySize=auto;html=1;fontSize=11;entryX=0;entryY=0.5;entryDx=0;entryDy=0;" parent="_aDls08xKMx5EJanJG5F-16" source="_aDls08xKMx5EJanJG5F-44" target="_aDls08xKMx5EJanJG5F-36" edge="1">
          <mxGeometry relative="1" as="geometry">
            <mxPoint x="189" y="414" as="targetPoint" />
            <Array as="points">
              <mxPoint x="91" y="415" />
              <mxPoint x="206" y="415" />
            </Array>
          </mxGeometry>
        </mxCell>
        <mxCell id="B8IcdggADXOZ8Fm9hswP-5" style="edgeStyle=orthogonalEdgeStyle;rounded=0;orthogonalLoop=1;jettySize=auto;html=1;entryX=0;entryY=0.25;entryDx=0;entryDy=0;" parent="_aDls08xKMx5EJanJG5F-16" source="_aDls08xKMx5EJanJG5F-44" target="_aDls08xKMx5EJanJG5F-36" edge="1">
          <mxGeometry relative="1" as="geometry">
            <Array as="points">
              <mxPoint x="151" y="151" />
              <mxPoint x="151" y="403" />
            </Array>
          </mxGeometry>
        </mxCell>
        <mxCell id="B8IcdggADXOZ8Fm9hswP-15" value="" style="endArrow=classic;startArrow=classic;html=1;rounded=0;exitX=0.75;exitY=0;exitDx=0;exitDy=0;entryX=0;entryY=0.5;entryDx=0;entryDy=0;" parent="_aDls08xKMx5EJanJG5F-16" source="_aDls08xKMx5EJanJG5F-36" target="_aDls08xKMx5EJanJG5F-21" edge="1">
          <mxGeometry width="50" height="50" relative="1" as="geometry">
            <mxPoint x="441" y="295" as="sourcePoint" />
            <mxPoint x="376" y="155" as="targetPoint" />
            <Array as="points">
              <mxPoint x="291" y="205" />
              <mxPoint x="291" y="150" />
            </Array>
          </mxGeometry>
        </mxCell>
        <mxCell id="B8IcdggADXOZ8Fm9hswP-9" value="&lt;div&gt;&lt;br&gt;&lt;/div&gt;&lt;div&gt;Invoke-Credit Status update&amp;nbsp; to Fusion &lt;br&gt;&lt;/div&gt;" style="text;html=1;strokeColor=none;fillColor=none;align=center;verticalAlign=middle;whiteSpace=wrap;rounded=0;fontSize=11;" parent="_aDls08xKMx5EJanJG5F-16" vertex="1">
          <mxGeometry x="260" y="81" width="95" height="45" as="geometry" />
        </mxCell>
        <mxCell id="lgGBbf29C0v0kF9u0JD7-34" value="&lt;div&gt;T109&amp;nbsp; &lt;br&gt;&lt;/div&gt;&lt;div&gt;API &lt;/div&gt;" style="rounded=1;whiteSpace=wrap;html=1;fontSize=11;fillColor=#e3c800;fontColor=#000000;strokeColor=#B09500;" vertex="1" parent="_aDls08xKMx5EJanJG5F-16">
          <mxGeometry x="148" y="255" width="105" height="47" as="geometry" />
        </mxCell>
        <mxCell id="_aDls08xKMx5EJanJG5F-27" value="&lt;div&gt;4.1&lt;/div&gt;&lt;div&gt;Invoke- URA Credit Note Apply&amp;nbsp; API&lt;/div&gt;" style="text;html=1;strokeColor=none;fillColor=none;align=center;verticalAlign=middle;whiteSpace=wrap;rounded=0;fontSize=11;" parent="_aDls08xKMx5EJanJG5F-16" vertex="1">
          <mxGeometry x="265" y="215" width="95" height="45" as="geometry" />
        </mxCell>
        <mxCell id="lgGBbf29C0v0kF9u0JD7-26" style="edgeStyle=orthogonalEdgeStyle;rounded=0;orthogonalLoop=1;jettySize=auto;html=1;entryX=0.684;entryY=0.156;entryDx=0;entryDy=0;entryPerimeter=0;fontSize=9;" edge="1" parent="1" source="lgGBbf29C0v0kF9u0JD7-14" target="lgGBbf29C0v0kF9u0JD7-24">
          <mxGeometry relative="1" as="geometry" />
        </mxCell>
        <mxCell id="B8IcdggADXOZ8Fm9hswP-4" value="" style="endArrow=classic;startArrow=classic;html=1;rounded=0;exitX=1;exitY=0.5;exitDx=0;exitDy=0;entryX=0;entryY=0.25;entryDx=0;entryDy=0;" parent="1" source="_aDls08xKMx5EJanJG5F-44" edge="1" target="_aDls08xKMx5EJanJG5F-26">
          <mxGeometry width="50" height="50" relative="1" as="geometry">
            <mxPoint x="319" y="1135" as="sourcePoint" />
            <mxPoint x="439" y="1205" as="targetPoint" />
            <Array as="points" />
          </mxGeometry>
        </mxCell>
      </root>
    </mxGraphModel>
  </diagram>
</mxfile>
